<?xml version="1.0" encoding="UTF-8"?>
<svg xmlns="http://www.w3.org/2000/svg" viewBox="0 0 64 64">
  <defs>
    <linearGradient id="grad1" x1="0%" y1="0%" x2="100%" y2="100%">
      <stop offset="0%" stop-color="#06b6d4"/>
      <stop offset="50%" stop-color="#ec4899"/>
      <stop offset="100%" stop-color="#84cc16"/>
    </linearGradient>
    <filter id="shadow" x="-50%" y="-50%" width="200%" height="200%">
      <feDropShadow dx="0" dy="2" stdDeviation="2" flood-color="#000" flood-opacity="0.35"/>
    </filter>
  </defs>

  <!-- Background -->
  <rect width="64" height="64" rx="14" fill="#0b0b0d"/>

  <!-- Gradient ring -->
  <circle cx="32" cy="32" r="22" fill="none" stroke="url(#grad1)" stroke-width="4" opacity="0.9"/>

  <!-- Eyedropper icon -->
  <g transform="translate(16,16) rotate(-20 16 16)" filter="url(#shadow)">
    <!-- Handle -->
    <rect x="18" y="4" width="10" height="16" rx="3" fill="url(#grad1)"/>
    <!-- Bulb -->
    <path d="M26 18c3.3 0 6 2.7 6 6s-2.7 6-6 6h-2.2l-4.5 4.5c-0.6 0.6-1.6 0.6-2.1 0l-4.2-4.2c-0.6-0.6-0.6-1.6 0-2.1L18 24.2V22c0-3.3 2.7-6 6-6z" fill="#1c1c22" stroke="url(#grad1)" stroke-width="1.5"/>
    <!-- Tip highlight -->
    <circle cx="30" cy="24" r="2" fill="#ffffff" opacity="0.85"/>
  </g>

  <!-- Subtle center dot to aid recognition at small sizes -->
  <circle cx="32" cy="32" r="1.2" fill="#ffffff" opacity="0.65"/>
</svg>
